<svg viewBox="0 0 324.5 440.753" xmlns="http://www.w3.org/2000/svg">
  <path d="M55.279 172.68c5.386 10.243 15.505 10.579 23.672 11.547 0 0-6.928 1.732-14.819-1.347s-8.276-10.2-8.853-10.2zm59.276-33.487s-.137 22.973-5.004 26.751c-6.55 5.085-13.087 16.359-27.906 21.363 2.988-1.48 8.43-5.678 12.157-8.179 1.2-.804-3.514.874-6.45 1.354 4.096-1.602 7.542-5.56 5.07-5.3-5.21 1.748-8.407 1.811-9.43.385s.213-6.25-3.464-2.886-6.668 3.938-10.585.962-10.519-9.176-11.355-13.28 1.573-7.184.578-8.852-4.854.91-2.695-1.54c1.945-2.206 5.387-6.35 9.046-12.317 0 0-1.188 6.573-.193 9.623.71 2.176 3.657-.385 3.657-.385 3.425 2.528 2.107 9.67 5.581 14.627-1.493-6.41.788-8.639.962-12.702l2.695-3.272 3.271 4.427 4.812-5.389 4.041 7.12 3.465-1.346s-1.482-8.078 1.54-9.046 7.407 6.159 9.43 10.008c0 0-.32-7.798-.77-11.162-.494-3.699 3.572-5.349 4.619-2.31.622 1.807 2.768 3.533 3.464 5.197.765 1.83 3.464-3.849 3.464-3.849zm14.627 37.529c.75.463.868 3.036-.5 4.76-1.4 1.762-4.309 2.67-5.659 2.746-3.815.212-1.746-4.5-5.003-3.657s-5.631 4.5-6.351 3.657 3.6-3.641 2.502-5.004-3.618-.58-5.582-.577-4.003.28-5.773.577c-1.573.264-1.102-2.928.77-2.502 2.265.515 6.862-1.312 8.852-4.619 3.56-5.912 5.582-13.087 6.544-18.09s7.698-4.043 5.581 3.078-5.389 9.238-3.464 13.28 4.893 4.381 8.083 6.35zm14.049-42.148c.21 3.032-2.242 6.911-3.272 12.702s-.665 18.394-1.924 21.94c-.105-1.073.025-2.384-1.348-2.502s-2.532 1.979-4.234 2.502c3.496-4.866 3.873-6.589 4.042-9.43s.011-6.133-1.925-6.544-2.231 3.97-4.041 3.657-1.455-3.474-2.117-7.89 3.636-14.105 2.117-18.284-3.51-3.28-4.042-4.234c-.839-1.506.821-3.198 3.272-3.08s5.1 3.63 5.966 7.699c.846 3.973-2.34 12.931-.962 18.476 1.762-4.078 3.853-9.68 5.004-12.317s.067-6.96 2.117-7.12 1.137 1.393 1.347 4.426zm131.76 8.67c2.655 3.45-7.335 2.917-7.015 7.701s6.147 1.016 7.45 3.398 1.74 6.242-1.277 6.869c-2.699.56-1.459 2.549-.837 7.151s-3.807-2.407-5.082-.7c-1.24 1.658-1.888 9.776.546 12.164 2.905 2.85 3.612 5.498 3.327 8.749s-2.046 4.59-.111 9.975c1.594 4.439-.806 5.74-4.034 6.688-1.78.523-5.944 1.625-6.327-.27s1.124-3.719 3.046-4.06 4.43 1.83 3.045-2.791-1.277-7.823-.761-11.42-3.466-4.563-3.3-7.614-.226-9.78-1.522-14.72-6.907-10.224-4.822-12.689-.446-8.536-.167-9.477 2.865.752 3.347.511-3.348-7.296-.642-8.545 2.572 3.533 5.127 5.201 7.354.429 10.01 3.88zM204.874.004c-.332.005-.655.009-.969.03-10.049.719-6.106 4.332-15.438 6.845s-15.078-2.883-26.562 3.218-23.673 12.563-36.594 13.281-20.478 1.79-27.656 7.532-11.82 20.088-17.562 28.344-8.986 15.074-10.78 23.688 1.07 19.05 6.812 22.28 16.522 9.318 21.188 12.907 9.335 6.812 2.875 6.812-2.528 1.454.343 2.531 6.816-.004 8.97-2.875c1.526-2.035 1.692-9.57 15.56-8.01 4.373.491-2.33-7.58.595-8.521 10.05-3.23 15.08-6.442 16.875-10.031s-1.978 7.43-7.421 13.553c3.613-3.044 7.075-5.586 11.734-12.116-1.33 5.702-2.123 10.415-12.376 16.428 4.54.359 8.134-2.59 12-4.585 0 0-6.438 6.442-7.874 10.031s3.565 7.92 5.719 6.125 5.809 5.14 5.03 7.531c-2.378 7.313-1.394 13.051-1.639 19.99s-1.74 11.937-1.579 16.487c.193 5.475 3.719 18.122 16.594 27.054-10.516-10.16-13.559-19.8-11.446-21.083 1.215-.737 7.67 5.651 8.929 4.125 1.096-1.328-8.095-14.2-7.867-21.33s1.91-13.822 5.666-20.744c4.495-8.286 7.175-22.175 10.312-33.562s-8.513-15.56-9.25-22.656c-.627-6.026 11.8-6.835 7.093-30.688 3.96 3.38 14.127 7.182 18.938 11.47 4.952 4.413 12.221 4.153 21.97 5.406s6.84 11.464 9.656 15.156 8.476 3.753 10.366 5.19c2.852 2.166 11.923-.669 16.276-4.425 3.196-2.759 5.148-4.593 11.825 1.75-1.608-5.167-6.466-11.088-5.075-9.181 5.646 7.739 13.374 5.151 18.551 11.356 1.534 1.838 8.853 12.209 8.853 14.747 4.466 11.016-2.16 10.692-3.065 18.28-.321 2.692 3.41 9.8 4.425 6.502s2.03-.51 2.03 2.28.274 8.873.782 11.157 2.281-2.033 2.281-6.094 2.285-18.787 2.031-22.594-.017-8.63-3.062-12.438 5.962-6.156 10.263-10.28c4.041-3.874 8.56-12.97 10.015-27.818.942-9.61-3.847-24.243-8.871-33.933s-16.873-19.018-27.281-20.812-13.263 4.996-23.312 2.125C234.016 7.658 215.18-.164 204.877.001zm-26.812 25.219c-1.284 16.44 30.312 36.719 30.312 36.719-19.589-6.252-24.426-7.19-30.031-15.22-4.146-5.939-9.74 4.255-11.312-5.062-1.556-9.22 2.04-14.383 11.031-16.438zm-41.25 13.03c.746-.065 1.404.156 1.937.844 2.136 2.753-2.789 6.184-7.437 5.656s-8.24-.853-13.625-.78-7.782.208-15.656 1.53c2.914-4.328 13.022-8.134 17.219-6.656 4.283 1.509 6.31 2.283 9.75 2.313 2.58.022 5.573-2.709 7.812-2.906zm-19.938 27.439c.358.006.718.048 1.094.125 3.004.608 7.187 2.812 7.187 2.812l10 2.063c-.475 3.327-13.872 3.99-14.375 4.875s11.312 4.875 11.312 4.875c-4.058 1.623-20.747-.39-18.25-4.375s-3.046 1.272-3.594 2.593c-.502 1.212-3.373-.999-3.093-2.062s2.159-4.026.28-5.906-11.061 0-11.061 0 7.274-4.702 11.812-4.125c3.949.502 6.184-.917 8.687-.875zM85.093 84.38s34.639.326 37.344 5.03 12.138 1.596 11.469 6.095c-.874 5.876-4.273 2.89-10.031 3.593-4.353.531-3.594-3.937-3.594-3.937-.503-3.27-9.123.506-9.687-2.156-.407-1.92 1.062-3.594 1.062-3.594-4.494-2.298-15.529-3.668-26.562-5.031zm81.623 169.83s-24.372-15.782-28.17-20.557c-2.719-3.418-4.822-10.66-4.822-10.66 9.365 12.582 18.52 16.987 32.992 31.217zm-23.591-61.67c-5.583 3.046-10.995 7.882-14.219 8.626-3.3.76-8.63 1.008-10.406 2.53s-.759 5.08-2.281 6.095-2.789-1.014-2.281-4.313 3.042-4.568 2.28-8.375-5.59-1.01-7.874 1.781-1.61 5.643-4.063 6.344c-1.776.508-3.813-4.304-5.844-2.781s-1.771 4.062 1.782 4.062 11.923 8.612 14.969 13.688 4.312 3.815 4.312-.5.781-9.906.781-9.906 5.237 14.986 11.156 22.094c4.597 5.52 20.52 18.042 25.625 21.312 8.63 5.529 24.707 18.367 35.281 24.094-14.283-10.54-21.563-23.367-22.594-25.875-1.642-3.998 1.78-2.033-2.28-6.094s-10.65-16.99-11.157-21.812-5.844-8.904-7.875-4.844-6.844 4.062-8.875 2.032-2.042-13.451-1.281-16.75.276-7.346 4.844-11.406zm-16.562 12.563c.656-.074 1.298.096 1.594.625 1.095 1.956 1.208 7.479.25 8.375-1.148 1.072-2.954-4.08-3.813-7.094-.277-.972.876-1.785 1.97-1.906zm-54-8.503c-.518 6.56-12.229 14.467-13.869 21.413-1.552 6.572-1.385 15.663 10.062 21.984 0 0-16.905-8.13-18.273-22.08-1.269-12.942 10.466-19.395 16.75-23.855 1.794-1.274 5.613-1.057 5.33 2.538zm9.644 39.337c-9.335.217-14.766-6.906-12.943-12.435 2.405-7.295 12.435-20.303 23.602-22.841 5.077-1.154 2.03-10.66-3.807-6.852s-20.389 13.207-24.871 21.826c-3.3 6.344-3.178 14.342 1.015 18.526 3.704 3.695 17.257 2.03 17.004 1.776zm24.7-19.865c-2.422 11.264-11.755 12.063-18.188 17.406-7.604 6.316-4.624 15.66-10.781 19.469-11.927 7.375-14.694 11.505-20.344 20.438-2.318 3.664-9.06 4.644-10.75 8.594-3.253 7.603-15.915 18.923-26.72 21.5C8.277 306.304 1.344 306.476 0 312.385v128.38h179.72c-1.545-4.768-4.169-11.96-6.813-14.844-4.1-4.473-7.094-7.806-7.094-11.906s2.61-5.592 5.22-5.219 7.08.361 10.061-1.875 6.342-5.21 11.188-3.719 7.092 2.61 11.938 0c0 0-7.53 25.543-11.25 37.562H324.5l-23.062-26.969s-19.284-21.266-24.562-41c-5.557-20.776-15.306-36.639-29.25-60.406-2.63-4.483-9.327-8.943-13.625-12.875-3.33-3.046-4.502-6.064-4.219-7.5.339-1.714 2.772-2.623 6.125-2.625 1.55 0 1.255-2.505 2.47-2.812 2.504-.635 4.236-3.595 5.78-6.844-3.9 4.5-8.352 6.668-9.78 5.219-1.808-1.833-16.19 5.681-19.439 5.53-10.003-.462-18.345-3.958-34.062-16.687 10.551 12.439 23.864 17.08 31.906 19.594-8.98-.737-17.36-4.824-24.719-9.281 5.871 5.95 10.062 7.55 11.97 8.5 3.05 1.519 1.167 4.448-1.5 2.78-2.992-1.868-5.204-3.299-8.657-5.218-9.189-5.106-18.974-16.82-27.125-23.219 9.463 11.386 14.811 18.765 28.781 27.72-6.471-1.016-9.073-6.176-13.156-7.864-5.032-2.08-5.708-6.581-7.13-7.392-2.478-1.413-5.327-.672-6.214-2.432-1.379-2.74-4.811-7.515-6.406-10.125s-14.28-13.562-14.28-13.562c-13.2-11.327-27.992-20.262-37.439-37.22zm124.54 29.918c-3.314 1.917-3.303 5.737-6.954 5.737s-13.559.396-16.515-2.087c-4.346-3.65-6.258 0-3.303 2.26s10.952 6.433 14.255 8.171c2.432 1.28 8.692.174 11.126.87 3.082.88.348 5.562 1.043 8.344s5.042 5.389 7.302 3.303 1.216-4.694 3.129-5.216 3.65.174 4.867-2.433 2.782-9.91.348-12.864-7.301-6.433-9.561-6.606-3.525-.758-5.737.521zm20.556-16.873c1.67 8.953-.523 16.278-2.95 21.02-.396-7.053-.953-10.38-4.057-10.695-2.143-.217-2.202 1.16-3.319 2.95-.693 1.11-6.254.095-6.146-1.598.093-1.465-.386-3.332-1.598-3.934-5.094-2.528-12.95-.466-14.136-1.844-1.837-2.13-4.544-1.08-5.409-2.704-.997-1.871.092-2.207 1.598-2.581 1.966-.489 5.334.895 7.744 0 7.964-2.96 12.448-4.407 14.751-4.057 3.262.496 4.108 3.009 6.392 3.934 1.858.752 4.962.311 7.13-.492zm4.408-25.221c-6.627-1.51-16.09-6.242-18.413-1.896-2.316 4.332-5.777 2.208-5.812 5.803-.055 5.511 7.655 2.997 10.599 6.025 2.225 2.289-1.009 8.264 2.108 10.367 1.762 1.188 5.04-.744 7.35.8 3.592 2.403 3.626 7.964 4.95 11.982 1.567-3.97 1.387-9.177 1.562-13.806.089-2.344-1.623-3.891-.26-5.8 1.739-2.438 6.49-2.762 10.136-3.838-3.71-3.642-7.82-.997-9.218-1.78-1.242-.697-1.038-1.321-2.235-2.093-2.548-1.645-5.22-1.716-9.103-2.639 4.455-.463 7.122-.159 8.748-.691.94-.309.553-2.215-.412-2.435zm-45.727-67.98a6.362 6.362 0 00-4.219 1.594c-4.218.62-8.2 2.044-10.062 3.375 3.029-.405 5.777-.615 8.281-.782a6.244 6.244 0 00-.375 2.157c0 3.509 2.866 6.375 6.375 6.375 3.5 0 6.327-2.849 6.344-6.344 1.661-.025 3.246.55 4.781.812 0 0-2.536-3.033-6.125-4.75a6.333 6.333 0 00-5-2.437zm3.937 3.687c.61 0 1.125.752 1.125 1.688s-.514 1.687-1.125 1.687-1.093-.751-1.093-1.687.483-1.688 1.093-1.688zm-1.937 3.875c.763 0 1.406.955 1.406 2.125s-.643 2.094-1.406 2.094-1.375-.924-1.375-2.094.612-2.125 1.375-2.125zm-7.263 18.044c2.252.175 5.623 3.1 8.288 2.579s5.774-3.25 2.763-4.605-8.113.1-8.841-1.658 4.641-5.525 7.92-5.894 5.96.24 7.552 1.474c1.961-1.53-4.415-3.708-2.947-5.526s6.25 2.174 7 .184-7.791-2.599-4.422-3.683 4.458.456 7.255 2.207c2.564 1.606 5.811 2.173 6.007 6.265s-4.01 7.248-6.124 10.35c-2.58 3.785-4.018 6.516-6.807 6.235-2.072-.208-2.067 3.848-4.014 3.86s-3.347-4.6-7.368-3.13-9.937 1.726-11.05-.185 4.682-1.076 4.972-3.315-5.025-2.321-4.605-4.053 2.169-1.28 4.421-1.105zm-23.761-25.05c3.627.411 4.737 2.53 5.341 4.052.632 1.594 2.573 3.054 3.868 2.763s1.885-4.871 3.316-5.71c1.29-.756 3.412.637 5.71 0s4.84-3.85 7.551-3.868 5.408.45 6.263 2.21c.926 1.908 6.748 1.074 7.552-2.946s-2.65-4.905-5.526-4.973-3.19 1.474-4.901.968c-3.922-1.158-5.44 2.49-7.808 3.268s-5.083-.247-7.184.368-2.788 2.265-5.157 2.947-12.653.51-9.025.921zm14.944-15.343s11.094-4.04 15.616-2.575 6.308-1.779 8.146.052c2.12 2.112 5.49 4.138 10.038 2.76s12.603 2.696 12.251 10.594c1.674-5.548-1.388-9.711-4.284-12.907 3.366-.248 5.905 4.72 5.783 7.993 3.008.142 6.061-5.467 8.175-9.44 1.562 6.343-7.486 10.75-5.861 12.59s2.956-1.714 5.861-5.046c.142 4.405-1.95 8.754-3.97 11.197s-4.03 1.952-4.704 4.496c-.74 2.788-.28 6.96-1.052 9.988s-6.04 1.606-5.52-2.365c.527-4.014-.12-10.098-1.314-12.091s-4.83-2.671-6.308-3.943-.059-3.325-1.577-4.469-4.423 1.339-7.098 0-2.737-3.773-7.36-5.783-16.823-1.05-16.823-1.05z"/>
</svg>