<svg viewBox="0 0 204.63 283.46" xmlns="http://www.w3.org/2000/svg">
  <path d="M35.222 144.171c-.038 6.994 2.804 7.826 8.526 8.521v7.749c6.714.267 13.429.515 20.143.776 1.539-2.004 1.13-2.049 3.885-3.097-.77-1.812-1.552-3.618-2.321-5.429 7.272-2.129 6.057-3.216 14.72-1.553 1.489 2.327.137 1.303 3.103 2.327 1.365-2.097 2.048-2.873 4.643-3.872-.51-3.357-1.02-6.721-1.539-10.077a3306.562 3306.562 0 00-6.976-3.872c1.291.254 2.582.514 3.872.775v-4.654c-6.801-4.288-10.574-5.76-21.706-5.425-17.464 6.972-20.182-4.905-26.35 17.831zm41.08 2.327l-16.283-.776c-.248-1.036-.509-2.071-.77-3.107 1.291-.517 2.582-1.037 3.872-1.552 5.411.34 10.128 2.581 13.181 5.435zm74.403-9.308l-16.271-3.103a93.382 93.382 0 01-1.551-.775c6.888-.975 14.757-1.186 17.822 3.878h5.436c.36-3.94.148-4.257-.781-7.75-12.933-9.358-32.864-3.184-45.722-2.321v4.648c5.435.012 6.664.205 10.077.77l-8.538 3.884c-1.515 3.928-.261 3.524 0 8.52l8.538-1.552v.782l-6.205 3.096v3.104c3.326-1.371 3.214-2.47 7.744-3.104 2.705 2.074 3.426 2.341 3.872 6.976 2.842-1.545 1.315.372 2.333-3.103l3.873.775h-3.104c1.428 3.574.559 2.75 3.885 2.327 4.133-.254 8.266-.515 12.398-.775.77-1.036 1.552-2.065 2.321-3.097-.77-2.072-1.552-4.133-2.321-6.199 2.061-1.037 4.133-2.073 6.193-3.108v-3.873zm-17.822 13.95c.261-.77.509-1.545.77-2.32.632 1.904.285.663-.77 2.32zm-12.411-7.751c2.482-2.395 2.457-1.185 2.334-4.647l2.32-.776 13.95 1.553a539.518 539.518 0 011.551 4.653c-6.664-1.882-12.684-.976-20.155-.783zM73.199 86.808l-4.654-.775-3.873 2.327c-.521 1.297-1.029 2.581-1.551 3.878l8.526-1.557a241.66 241.66 0 001.552-3.097v-.776zm120.137-27.906h1.552c-.993-2.309.037-.925-1.552-2.321v2.321zm5.436 14.732c1.539-4.586-1.589-3.264-3.104-5.43-.099-.069-5.274-10.593-4.653-11.623.868-1.439 3.487-1.154 2.32-5.423l-7.744-15.508-1.552-.775.782 12.411c-4.853-4.94-5.138-15.439-9.309-20.937-4.133-4.133-8.266-8.266-12.41-12.399-5.511-3.63-9.854 1.564-13.938.77-2.333-1.799-4.654-3.611-6.976-5.417-13.922-6.07-47.853-12.443-57.36-3.098-1.291-1.557-2.595-3.108-3.873-4.66C79.268.205 78.87.155 75.52 0c-7.931 5.839-33.36 2.743-44.952 8.526C15.6 16.004 14.458 45.504-.435 57.351c1.39 12.262 3.897 18.424 11.629 24.04-2.954 21.073 8.576 93.379 15.501 103.078l5.423 1.552h3.873L32.9 171.295c-3.326-12.02-7.893-28.161-3.103-45.728 1.8-6.621 7.546-9.419 8.526-17.828 13.255-1.123 21.894-15.532 29.451-23.252 3.276-.311 7.521-1.024 8.526 2.32 7.731-1.079 13.118-7.329 18.604-9.302 15.55-5.604 46.391 9.451 58.901 16.283 4.418 9.506 17.697 54.273 12.41 70.531v13.943c16.073-5.653 22.229-71.232 24.798-95.328.77-.521 1.551-1.036 2.32-1.545 3.624 2.06 7.236 4.133 10.86 6.193-1.078-3.753-2.704-11.484-5.421-13.948zM67.775 7.751a86.315 86.315 0 011.552-.776h.77c-1.552 1.353-.138 1.688-2.322.776zm119.369 44.183v-3.097c.26 1.024.509 2.06.769 3.097h-.769zm-64.338 178.263c1.042-1.285 2.06-2.581 3.102-3.872v-3.872c-8.65-12.598-34.465-12.318-51.939-15.508a344.157 344.157 0 01-1.539 3.108c.497 8.931 4.729 11.245 7.745 17.047 10.637 6.392 21.731-4.114 35.656 0 2.481.739 3.052 2.501 6.975 3.097zm-15.502-12.398c-6.379 1.191-11.405-.323-17.822-.775-.26-.516-.521-1.037-.781-1.546 1.961-1.284 3.958-.707 6.206-2.326l12.397 2.326v2.321zm41.08 24.809c-6.727 13.576-23.605 31.927-40.311 35.649-28.967 6.447-46.491-36.741-51.146-57.363-1.799-7.954 3.637-13.502 2.321-18.598-1.378-5.299-17.847-13.664-23.258-15.501.422 12.045 5.287 20.813 6.975 30.228 0 0 21.962 66.441 60.088 66.441 30.183-.795 43.687-29.389 47.657-36.538 2.892-5.212 6.218-16.698 9.953-23.804-.099-2.656-.087-5.082.118-6.876-9.63 4.785-7.57 16.607-12.397 26.362zm-49.607 6.193c-5.125-1.501-8.438-5.213-12.397-7.751a586.093 586.093 0 01-3.104-.775c2.072 13.9 20.044 13.956 31.772 9.303-3.003-4.215-10.127 1.029-16.271-.777zm-18.603-66.653h-2.32c-1.899 4.853-3.873 7.583-3.886 14.725l.782 1.546c16.084 3.835 26.262-2.104 39.528-1.546.262-1.291.509-2.586.771-3.877-1.503-1.576-26.113-2.694-34.094-4.655-.26-2.059-.52-4.133-.781-6.193z" fill="#1a171b" fill-rule="evenodd"/>
</svg>