<svg viewBox="0 0 243.62 425.2" xmlns="http://www.w3.org/2000/svg">
  <path d="M94.023 21.375c-.787 5.619 2.287 24.899 4.134 27.486l1.446.413h1.033l-.824-3.926c-.887-3.206-2.105-7.51-.828-12.194.48-1.765 2.013-2.512 2.273-4.754 3.535-.299 5.838-4.141 7.854-6.2.874-.083 2.006-.273 2.273.619 2.062-.288 3.498-1.955 4.961-2.48 4.146-1.495 12.371 2.52 15.707 4.341 1.178 2.536 4.72 14.473 3.309 18.808v3.718c4.286-1.508 5.927-18.994 6.613-25.419l.617-.412 2.896 1.651c-.288-1.001-.723-3.062-1.447-3.72.412-1.223-.424-.87-.826-1.448-.026-.018-1.407-2.825-1.24-3.099.23-.384.929-.308.617-1.446l-2.064-4.135-.414-.207c.071 1.101.14 2.203.209 3.309-1.295-1.317-1.369-4.118-2.482-5.583l-3.309-3.306c-1.469-.967-2.628.417-3.717.206l-1.859-1.444c-3.714-1.618-12.761-3.318-15.297-.825-.344-.416-.691-.83-1.032-1.244-.451-.356-.556-.37-1.45-.412-2.115 1.558-8.896.731-11.986 2.274-3.992 1.994-4.296 9.86-8.268 13.019.371 3.269 1.04 4.912 3.101 6.41zm46.919-8.68c.068.272.134.549.204.824h-.204v-.824zM109.525 1.532h.205c-.414.362-.036.451-.619.208l.414-.208zm33.067 13.847h.414c-.265-.615.01-.247-.414-.619v.619zm-32.034 7.647v-.206l-1.242-.207-1.032.62-.414 1.034 2.273-.415c.14-.272.279-.549.415-.826zm20.667 13.227c-1.446-.274-2.893-.55-4.34-.827l-.411-.207c1.836-.259 3.933-.315 4.751 1.034h1.449c.096-1.05.039-1.135-.208-2.066-3.448-2.495-8.764-.849-12.192-.619v1.239c1.45.004 1.777.055 2.688.206l-2.277 1.036c-.403 1.047-.069.939 0 2.272l2.277-.414v.208l-1.655.827v.827c.887-.366.857-.658 2.064-.827.722.552.913.623 1.032 1.859.758-.412.352.099.623-.827l1.032.207h-.826c.379.953.149.733 1.035.62l3.307-.207c.204-.276.413-.55.618-.826-.205-.552-.414-1.101-.618-1.653l1.65-.829v-1.033zm-4.751 3.722l.204-.62c.168.508.076.176-.204.62zm-3.311-2.068c.662-.639.655-.316.623-1.239l.617-.207 3.72.414c.14.412.278.826.414 1.241-1.777-.502-3.382-.26-5.374-.209zm-10.746 2.068c.397.62.037.347.828.62.363-.56.546-.766 1.237-1.033-.136-.894-.271-1.792-.41-2.687l-1.86-1.033 1.033.208v-1.242c-1.814-1.143-2.82-1.535-5.789-1.446-4.656 1.858-5.38-1.309-7.025 4.753-.011 1.865.748 2.086 2.273 2.272v2.067l5.371.207c.41-.535.301-.546 1.036-.826-.205-.483-.414-.965-.619-1.448 1.94-.567 1.615-.856 3.925-.412zm-5.374-1.446a62.656 62.656 0 00-.206-.829l1.033-.414c1.443.092 2.7.689 3.514 1.451l-4.341-.208zm5.374 9.713h-.619c-.506 1.294-1.032 2.022-1.036 3.927l.208.413c4.29 1.022 7.003-.562 10.541-.413l.205-1.034c-.4-.42-6.963-.718-9.09-1.241l-.209-1.652zm129.59 332.757c-.967-4.343-1.93-8.686-2.894-13.021.668-3.052 2.532-6.384 1.446-10.541-1.201-4.597-4.262-7.713-5.992-12.196-3.221-8.327-4.866-18.835-7.235-27.489-3.223-11.752-4.572-25.46-11.367-33.687.463-1.737 1.261-2.298 1.241-4.754-1.816-1.901-5.754-3.295-8.27-4.339-2.646-3.436-1.371-5.488-1.033-10.542-1.776-1.818-6.5-3.019-7.648-4.547-.409-1.585-.823-3.169-1.237-4.752-1.79-2.827-3.584-5.651-5.375-8.477l-22.527-32.242c2.061-2.256 11.978-15.862 10.955-19.841l-10.747-17.776c3.502-3.338 6.371-5.888 9.3-9.92 1.457-2.003 4.068-3.567 5.995-5.166 2.369-1.968 5.134-7.06 6.198-10.126 3.001-8.632-4.435-13.774-5.995-18.602-.478-3.858-.962-7.716-1.445-11.574-2.635-12.163-6.304-32.897-14.261-38.856-7.168-5.369-18.117-8.165-26.662-11.779-2.825-1.102-5.649-2.204-8.473-3.308-1.636-1.996-2.334-7.806-2.068-10.128-2.568 1.276-2.02 4.428-3.307 7.029-1.794 3.62-6.295 8.513-10.749 9.507-7.724 1.719-12.397-9.798-13.638-15.297-.479-2.121.97-3.6.619-4.958-.368-1.413-4.759-3.644-6.202-4.134.112 3.212 1.41 5.55 1.859 8.06-.136.277-.274.553-.413.826-.563 1.011-1.555 1.929-1.856 3.309.065.896.136 1.792.205 2.688-1.331 4.052-6.646 5.016-10.541 6.612-10.027 4.11-23.225 6.407-31.416 12.608-3.157 2.392-4.934 8.344-6.82 11.987-3.021 5.841-5.659 12.625-7.854 19.635-1.032 3.79-2.068 7.579-3.101 11.367-1.552 3.382-3.392 6.938-4.961 10.748-1.476 3.582-7.591 11.53-5.993 16.536 2.7 8.455 17.858 21.277 25.009 26.042l10.541 6.614c.509.974-2.505 4.85-3.306 6.2-3.102 5.786-6.202 11.577-9.303 17.36.43 4.077 4.756 5.299 6.821 7.854-5.943 11.695-14.359 20.611-20.461 32.655l-3.926 3.721c-3.179 4.75-5.834 13.33-6.201 20.254-2.042 1.256-7.006 2.224-8.472 4.134-2.002 2.607-1.249 5.822-2.273 9.715l-3.31 7.646c-1.433 4.734-1.085 9.538-2.065 15.087-1.241 6.613-2.479 13.227-3.72 19.843l-4.755 15.089.208 6.198-1.446 4.131c-.278 3.171-.553 6.338-.827 9.509-.6 3.218-3.356 11.787-2.274 15.292.619.832 1.238 1.655 1.86 2.484-.069 1.652-.139 3.308-.205 4.96 1.661 10.589-1.629 27.247 4.133 34.102 2.313 2.756 13.078 2.439 17.152 1.24 6.003-1.766 9.561-11.263 7.234-19.635-1.135-4.083-3.862-7.707-4.753-12.401-.648-3.403.741-6.175 1.034-8.886l1.859-.209c.596-4.009 2.323-8.903 1.446-13.846l-1.241-4.96a41725.7 41725.7 0 0110.957-18.188l5.371-13.019c2.069-4.483 4.396-9.527 5.58-15.091-.135-4.82-.274-9.644-.41-14.466l4.543-2.276c1.983-.394 3.611.189 4.961-.617 1.446-1.517 2.896-3.03 4.342-4.546 2.294-1.099 3.829-.162 5.166-2.068l10.336-18.806c5.711-9.316 13.393-17.979 22.113-24.391 3.064-2.252 10.167-7.95 14.468-8.267l8.063 3.514c6.746 2.843 13.413 5.018 17.564 10.335 2.022 2.585 3.184 5.573 5.166 8.06 3.528 4.422 8.963 6.812 12.609 10.749 1.585 2.753 3.17 5.511 4.753 8.266 2.558 4.058 5.927 8.265 8.68 12.401l4.343 5.992 10.126 3.514c3.197 3.594 4.177 9.322 5.993 14.26 1.854 5.041 8.499 15.065 12.4 18.188-.089 11.725-3.218 26.143 1.654 34.519 2.052 3.522 11.192 4.73 11.781 7.438 1.505 6.92-1.812 11.51-3.101 16.536-1.581 6.174 2.336 18.224 4.752 21.493 1.334 1.798 3.767 2.788 5.993 3.719 3.02 1.262 7.811 2.156 10.958.209 6.671-4.134 6.522-30.137 4.342-40.511zM65.295 149.516h-.205l-1.242-2.067 2.273-4.545c1.056-4.411.262-7.938 2.069-10.955 3.042 3.947-2.769 13.113-2.895 17.567zm94.662-41.957l1.237.208c.209.618.415 1.239.619 1.858-.204.413-.41.829-.619 1.242l-.414.205c-.039-2.014-.591-2.124-1.241-3.305l.418-.208zm-4.755 3.309c1.002.234.992.297 1.445 1.032-.067.135-.136.276-.209.413l-1.442-1.034c.069-.138.135-.276.206-.411zm-2.892 40.92c-1.874.605-4.905 1.095-7.235 1.239-.208.413-.413.829-.621 1.243h2.896c-1.918 1.615-4.545.766-6.202 3.306-.496.309-.234.124-.413-.413-1.644.55-1.626 1.664-2.688 2.685l-6.821 4.137c-1.032-2.896-2.063-5.79-3.102-8.683l10.132-4.134 10.126-.823c2.215-.119 3.176.092 3.928 1.443zm-39.478-66.343v-.415l1.859 1.241c-.34-1.712-.837-1.532-.208-2.895-.231-1.211-.662-1.261-1.237-2.067 10.501-.863 9.928-7.547 15.916-11.161.134-.137.274-.274.413-.413l.618 1.448c-1.661 4.262-5.613 6.453-8.681 9.301v.825l7.025 1.655c.619.486.611 1.201.828 2.065l-4.962 3.308c-.413.939-.247.963 0 2.067-1.716.426-3.021-.313-4.957-.415.066-.963.136-1.928.205-2.895v-1.445h-.619l-.828 4.961c-2.042-2.068-3.611-3.297-5.579-4.548l.207-.617zm16.533 22.114v.622c-5.818.294-10.451 1.249-15.916 1.238-.549-2.754-1.102-5.51-1.651-8.266 3.531-.886 8.955-.178 9.918-1.652 1.675.698 1.754 1.509 4.551 1.445l3.098 6.613zM109.73 86.892l1.447.204v-1.032c1.648.938 3.095 2.784 3.928 4.548l-4.342 1.032h-1.857l.824-4.752zm22.736 30.796l1.031.206c1.984 1.491 3.609 5.61 4.549 8.059v.207c-4.608.998-10.401 1.31-15.293 1.447-2.948.085-5.906-.7-9.507.207h-4.753c2.491-16.846 12.897-5.122 23.973-10.126zm-28.521-23.149c1.443.737 2.221 1.399 3.098 2.685-1.103-.825-2.204-1.652-3.307-2.479l.209-.206zm17.981 41.957c.281.625.297.85.827 1.238 1.625.586 16.955-.644 18.807-1.445h1.861c1.23 3.357 4.781 5.124 5.786 8.265-7.489.807-17.961.992-25.627 2.48-.348-.402-.47-.793-.619-1.443-7.108.403-15.095 1.275-22.944 1.238l3.719-8.885c6.064-.486 12.127-.969 18.19-1.448zm5.579 11.778v.208l-1.237.208c.065-.137.136-.277.206-.415h1.031zm-27.074-24.18c.688.137 1.379.274 2.064.415.348.412.688.823 1.037 1.238-.146.746-.083.626-.414 1.035-.45.799-1.006 1.059-2.068 1.241l-1.033-.416-1.033-1.86 1.447-1.653zm-14.469 31.414c.278-.343.552-.689.828-1.032 1.552.343 2.012 1.108 2.892 2.064-.066.277-.135.553-.205.829v.415c-2.138-.01-2.843-.839-3.515-2.276zm1.033 29.556v-.622h.208l-.208.622zm39.89-2.48c-.832-.092-.802-.067-1.24-.415l-1.032-1.032 3.306-4.136c.884 2.019-.357 4.393-1.034 5.583zm2.07-8.681h-2.481l2.063-2.892v-.622l-1.237.622c.323-1.213-.065-1.877-.41-2.88l-.035-.015h-.796c-.817 1.952-1.618 3.375-1.446 5.787-3.044-.028-8.256-.67-10.13-1.86h-.41c.877-.905 2.194-1.174 2.685-2.481h.416v-.618c-3.173 1.143-7.241 2.21-9.097 4.751.301 5.252 9.087 6.879 11.99 10.956-.14.413-.275.825-.414 1.241l-1.241.62c-2.386-1.769-6.628-5.581-10.954-4.963.305 1.027 1.059 1.207 1.241 2.068-.139.619-.274 1.241-.413 1.858.949 2.912 6.255 5.154 6.821 9.303-.483.413-.966.825-1.447 1.239l-.827.206c-2.902-2.434-8.141-10.312-11.368-11.159.817 5.53 5.884 8.454 6.407 13.641-.48.346-.963.689-1.446 1.032l-1.238-.206c-3.158-1.672-5.071-10.905-7.648-11.987l-.619.412c.202 5.008-.043 11.208-1.655 15.709l-1.242.415c-.482-.346-.962-.69-1.446-1.035v-9.506l-1.446-4.96c-.751.197-.424-.015-.828.413-1.88-1.57-1.608-3.434-2.479-5.788 2.594-5.381 9.094-15.065 15.911-15.709-.218-1.023.077-.695-.823-1.032-.07-.137-.14-.274-.209-.413 6.195.246 12.191 1.726 14.883-3.306v-.829c-7.199 1.276-18.692.161-22.945-3.72.484-1.102.963-2.204 1.446-3.305l14.882-.415 4.752-.619 10.126 1.651c.672 2.481.701 4.733 1.45 6.823v1.032c-1.778-.344-2.112.422-3.305.413l-3.516-1.445c-.206 1.099-.414 2.204-.623 3.306v.826c3.013-.239 4.938.797 6.998 1.654h.03l.005.015c.783.325 1.585.623 2.476.813l2.068-1.655.413.415c-.962 2.067-1.926 4.132-2.889 6.199zm-3.723-1.239l.617-1.447.624.619-1.241.828zm28.315 16.328c-.768.5-1.516.773-2.688.412-2.28-1.123-2.81-4.505-4.751-5.579-.854-.472-2.255-.334-2.894-.621-.578-2.106-1.738-3.59-1.861-5.787-1.312.137-2.021.102-3.099-.207-1.123-1.675-2.229-3.667-2.483-6.2l2.483-2.69c-.22-1.023.074-.695-.829-1.032-.939.638-.979 1.311-2.272 1.655-.97-.924-1.691-1.764-2.273-3.102 1.551-2.825 3.355-3.353 6.407-4.754 7.541-.12 11.385 3.955 13.64 9.094-.135 2.521-2.518 8.419-4.133 9.923.057 3.293 2.591 6.857 4.753 8.265v.623zm3.514-71.719c-2.213-.203-2.818-1.628-3.514-3.306l.418-2.274c1.181 1.843 1.318 4.11 3.51 4.96l-.414.62zm1.446-1.444c-.134.066-.274.134-.413.205-.156-1.333-.547-1.86-1.859-2.067v-.208l.826-1.033.828.207.827 2.273-.209.623zm1.241-4.757l-.413.207-1.033-1.034c.071-.552.137-1.102.205-1.654h.209c-.144 1.362-.161 1.207 1.032 1.654v.827zm1.446 2.895h-.206c-.277-.345-.552-.69-.826-1.034.704-1.088 1.858-1.139 2.479-2.273.478.573.576.755.622 1.858-.79.438-1.61.627-2.069 1.449zm69.857 301.336l-.411.415-1.033-1.238c.013-1.005.091-1.33.413-1.864l1.446.209c.141.623.274 1.241.415 1.861-.275.206-.554.411-.83.617zm.415-30.999c-.964-.277-1.93-.552-2.896-.826-3.021-1.321-4.92-2.72-6.612-5.374l5.169-1.447c4.096-1.664 7.845-3.937 10.747-6.821 5.622 6.212-.872 13.332-6.408 14.468zM135.153 51.135v-.825h-.826v.825h.826zm-11.367 9.919c.277-.342.549-.688.826-1.032V58.99c-2.307-3.359-9.189-3.285-13.849-4.135-.136.276-.271.552-.41.829.132 2.381 1.26 2.998 2.064 4.545 2.836 1.705 5.794-1.097 9.508 0 .663.197.815.667 1.861.825zm-4.134-3.305c-1.702.317-3.042-.087-4.752-.208l-.209-.412c.523-.343 1.056-.188 1.655-.62l3.306.62v.62zm-2.274 8.266c-1.367-.4-2.25-1.39-3.306-2.066l-.827-.208c.553 3.707 5.344 3.722 8.472 2.481-.801-1.123-2.7.275-4.339-.207zm24.182 107.888h.62l.208-1.034h-.828v1.034zm8.68 2.892h-.618c-.069.346-.141.692-.209 1.037.9-.345.613-.005.827-1.037zm-4.132 4.961l.207.208h.619c.206-.48.414-.963.619-1.447h-1.034c-.133.415-.274.826-.411 1.239zm-49.81 2.275l.622 1.652h.619a306.63 306.63 0 01-.414-1.652h-.827z" fill="#1a171b" fill-rule="evenodd"/>
</svg>